<svg width="228" height="339" viewBox="0 0 228 339" fill="none" xmlns="http://www.w3.org/2000/svg">
<path d="M0 2.71772V223.533H114V110.182L4.1692 0.976888C2.62527 -0.558248 0 0.537912 0 2.71772Z" fill="#BAFFC9"/>
<path d="M228 2.71772V223.533H114V110.182L223.831 0.976888C225.375 -0.558248 228 0.537912 228 2.71772Z" fill="#FFB3BA"/>
<path d="M0 223.533V334.296C0 336.467 2.6073 337.567 4.1563 336.05L52.825 288.369C54.7072 286.525 57.7074 286.504 59.6153 288.322L110.63 336.912C112.518 338.71 115.482 338.71 117.37 336.912L168.385 288.322C170.292 286.504 173.293 286.525 175.175 288.369L223.843 336.05C225.392 337.567 228 336.467 228 334.296V223.533H0Z" fill="#BAE1FF"/>
</svg>
