<?xml version="1.0" encoding="UTF-8"?>
<svg xmlns="http://www.w3.org/2000/svg" xmlns:xlink="http://www.w3.org/1999/xlink" width="140px" height="41px" viewBox="0 0 141 41" version="1.1">
<g id="surface1">
<path style=" stroke:none;fill-rule:nonzero;fill:rgb(100%,70.196078%,72.941176%);fill-opacity:1;" d="M 0 14.28125 L 23.261719 14.28125 C 23.496094 14.28125 23.691406 14.085938 23.679688 13.847656 C 23.457031 7.433594 18.242188 2.304688 11.84375 2.304688 C 5.304688 2.304688 0 7.664062 0 14.28125 Z M 0 14.28125 "/>
<path style=" stroke:none;fill-rule:nonzero;fill:rgb(72.941176%,100%,78.823529%);fill-opacity:1;" d="M 23.6875 26.257812 L 0.425781 26.257812 C 0.191406 26.257812 0 26.453125 0.0078125 26.691406 C 0.234375 33.105469 5.445312 38.234375 11.84375 38.234375 C 18.386719 38.234375 23.6875 32.875 23.6875 26.257812 Z M 23.6875 26.257812 "/>
<path style=" stroke:none;fill-rule:nonzero;fill:rgb(72.941176%,88.235294%,100%);fill-opacity:1;" d="M 11.84375 14.28125 L 0 14.28125 C 0 20.894531 5.304688 26.257812 11.84375 26.257812 Z M 11.84375 14.28125 "/>
<path style=" stroke:none;fill-rule:nonzero;fill:rgb(100%,100%,72.941176%);fill-opacity:1;" d="M 11.84375 14.28125 L 11.84375 26.257812 L 23.6875 26.257812 C 23.6875 19.644531 18.386719 14.28125 11.84375 14.28125 Z M 11.84375 14.28125 "/>
<path style=" stroke:none;fill-rule:nonzero;fill:rgb(100%,70.196078%,72.941176%);fill-opacity:1;" d="M 53.476562 26.257812 C 53.476562 32.875 58.78125 38.234375 65.324219 38.234375 C 71.722656 38.234375 76.933594 33.105469 77.160156 26.691406 C 77.167969 26.453125 76.976562 26.257812 76.738281 26.257812 Z M 53.476562 26.257812 "/>
<path style=" stroke:none;fill-rule:nonzero;fill:rgb(100%,100%,72.941176%);fill-opacity:1;" d="M 53.476562 14.28125 L 76.738281 14.28125 C 76.976562 14.28125 77.167969 14.085938 77.160156 13.847656 C 76.933594 7.433594 71.722656 2.304688 65.324219 2.304688 C 58.78125 2.304688 53.476562 7.664062 53.476562 14.28125 Z M 53.476562 14.28125 "/>
<path style=" stroke:none;fill-rule:nonzero;fill:rgb(72.941176%,100%,78.823529%);fill-opacity:1;" d="M 53.476562 14.28125 L 65.324219 14.28125 L 65.324219 26.257812 L 53.476562 26.257812 Z M 53.476562 14.28125 "/>
<path style=" stroke:none;fill-rule:nonzero;fill:rgb(72.941176%,100%,78.823529%);fill-opacity:1;" d="M 26.738281 37.621094 L 26.738281 14.507812 L 38.582031 14.507812 L 38.582031 26.371094 L 27.171875 37.800781 C 27.011719 37.960938 26.738281 37.847656 26.738281 37.621094 Z M 26.738281 37.621094 "/>
<path style=" stroke:none;fill-rule:nonzero;fill:rgb(100%,70.196078%,72.941176%);fill-opacity:1;" d="M 50.429688 37.621094 L 50.429688 14.507812 L 38.582031 14.507812 L 38.582031 26.371094 L 49.996094 37.800781 C 50.15625 37.960938 50.429688 37.847656 50.429688 37.621094 Z M 50.429688 37.621094 "/>
<path style=" stroke:none;fill-rule:nonzero;fill:rgb(72.941176%,88.235294%,100%);fill-opacity:1;" d="M 26.738281 14.507812 L 26.738281 2.914062 C 26.738281 2.6875 27.011719 2.570312 27.171875 2.730469 L 32.226562 7.71875 C 32.421875 7.914062 32.734375 7.914062 32.933594 7.726562 L 38.234375 2.640625 C 38.429688 2.449219 38.738281 2.449219 38.933594 2.640625 L 44.234375 7.726562 C 44.433594 7.914062 44.742188 7.914062 44.941406 7.71875 L 49.996094 2.730469 C 50.15625 2.570312 50.429688 2.6875 50.429688 2.914062 L 50.429688 14.507812 Z M 26.738281 14.507812 "/>
<path style=" stroke:none;fill-rule:nonzero;fill:rgb(100%,70.196078%,72.941176%);fill-opacity:1;" d="M 85.378906 8.351562 C 85.472656 8.695312 85.601562 9.023438 85.769531 9.328125 C 85.945312 9.628906 86.179688 9.871094 86.472656 10.054688 C 86.761719 10.238281 87.128906 10.332031 87.574219 10.332031 C 88.15625 10.332031 88.605469 10.167969 88.929688 9.847656 C 89.25 9.515625 89.410156 9.101562 89.410156 8.601562 C 89.410156 8.195312 89.320312 7.863281 89.136719 7.601562 C 88.953125 7.339844 88.71875 7.128906 88.433594 6.96875 C 88.152344 6.804688 87.855469 6.667969 87.550781 6.554688 C 87.296875 6.453125 87.046875 6.34375 86.792969 6.21875 C 86.539062 6.089844 86.308594 5.9375 86.09375 5.769531 C 85.886719 5.59375 85.722656 5.386719 85.597656 5.148438 C 85.476562 4.910156 85.414062 4.625 85.414062 4.296875 C 85.414062 3.917969 85.5 3.59375 85.667969 3.316406 C 85.84375 3.03125 86.085938 2.8125 86.390625 2.660156 C 86.699219 2.507812 87.046875 2.429688 87.4375 2.429688 C 87.855469 2.429688 88.21875 2.511719 88.515625 2.671875 C 88.8125 2.832031 89.058594 3.03125 89.25 3.269531 C 89.441406 3.507812 89.582031 3.746094 89.675781 3.984375 L 89.332031 4.167969 C 89.253906 3.953125 89.136719 3.742188 88.976562 3.535156 C 88.820312 3.328125 88.617188 3.15625 88.367188 3.015625 C 88.113281 2.878906 87.800781 2.808594 87.425781 2.808594 C 86.925781 2.808594 86.527344 2.941406 86.230469 3.203125 C 85.941406 3.460938 85.792969 3.816406 85.792969 4.261719 C 85.792969 4.605469 85.878906 4.902344 86.046875 5.148438 C 86.222656 5.386719 86.460938 5.59375 86.757812 5.769531 C 87.066406 5.945312 87.421875 6.109375 87.828125 6.253906 C 88.054688 6.347656 88.285156 6.453125 88.515625 6.574219 C 88.753906 6.699219 88.96875 6.847656 89.160156 7.023438 C 89.351562 7.203125 89.503906 7.417969 89.617188 7.671875 C 89.742188 7.921875 89.800781 8.222656 89.800781 8.570312 C 89.800781 8.875 89.746094 9.160156 89.640625 9.421875 C 89.535156 9.683594 89.378906 9.910156 89.179688 10.101562 C 88.988281 10.285156 88.757812 10.429688 88.480469 10.539062 C 88.207031 10.644531 87.898438 10.699219 87.5625 10.699219 C 87.082031 10.699219 86.671875 10.597656 86.332031 10.398438 C 85.996094 10.199219 85.726562 9.933594 85.519531 9.605469 C 85.3125 9.273438 85.164062 8.917969 85.070312 8.535156 Z M 117.464844 2.535156 L 117.832031 2.535156 L 117.832031 10.59375 L 117.464844 10.59375 Z M 102.835938 20.027344 L 102.835938 19.796875 L 104.054688 19.796875 C 104.398438 19.796875 104.71875 19.746094 105.007812 19.648438 C 105.304688 19.539062 105.542969 19.375 105.71875 19.152344 C 105.894531 18.921875 105.984375 18.625 105.984375 18.265625 C 105.984375 17.765625 105.8125 17.382812 105.46875 17.113281 C 105.128906 16.835938 104.660156 16.699219 104.054688 16.699219 L 102.917969 16.699219 L 102.917969 24.070312 L 104.167969 24.070312 C 104.621094 24.070312 105.015625 24 105.351562 23.863281 C 105.6875 23.71875 105.949219 23.5 106.132812 23.207031 C 106.324219 22.90625 106.421875 22.53125 106.421875 22.078125 C 106.421875 21.769531 106.355469 21.5 106.226562 21.261719 C 106.09375 21.015625 105.921875 20.8125 105.707031 20.648438 C 105.496094 20.480469 105.253906 20.355469 104.984375 20.269531 C 104.71875 20.175781 104.445312 20.132812 104.167969 20.132812 L 102.835938 20.132812 L 102.835938 19.914062 L 104.25 19.914062 C 104.535156 19.914062 104.824219 19.957031 105.121094 20.050781 C 105.421875 20.136719 105.695312 20.269531 105.949219 20.453125 C 106.203125 20.628906 106.40625 20.855469 106.558594 21.132812 C 106.710938 21.410156 106.789062 21.730469 106.789062 22.101562 C 106.789062 22.628906 106.675781 23.066406 106.453125 23.414062 C 106.234375 23.75 105.925781 24.003906 105.535156 24.175781 C 105.144531 24.335938 104.691406 24.414062 104.167969 24.414062 L 102.550781 24.414062 L 102.550781 16.355469 L 104.054688 16.355469 C 104.535156 16.355469 104.945312 16.429688 105.285156 16.585938 C 105.628906 16.730469 105.890625 16.941406 106.074219 17.21875 C 106.265625 17.492188 106.363281 17.835938 106.363281 18.242188 C 106.363281 18.648438 106.261719 18.988281 106.0625 19.257812 C 105.875 19.515625 105.609375 19.714844 105.273438 19.84375 C 104.941406 19.964844 104.5625 20.027344 104.136719 20.027344 Z M 99.222656 37.773438 L 99.222656 37.417969 L 103.164062 37.417969 L 103.164062 37.773438 Z M 99.222656 30.070312 L 99.222656 29.714844 L 103.164062 29.714844 L 103.164062 30.070312 Z M 99.222656 33.503906 L 99.222656 33.144531 L 102.933594 33.144531 L 102.933594 33.503906 Z M 99.050781 29.714844 L 99.429688 29.714844 L 99.429688 37.773438 L 99.050781 37.773438 Z M 116.375 29.714844 L 116.742188 29.714844 L 116.742188 37.773438 L 116.375 37.773438 Z M 116.375 29.714844 "/>
<path style=" stroke:none;fill-rule:nonzero;fill:rgb(72.941176%,100%,78.823529%);fill-opacity:1;" d="M 91.488281 10.59375 L 91.488281 10.238281 L 95.425781 10.238281 L 95.425781 10.59375 Z M 91.488281 2.890625 L 91.488281 2.535156 L 95.425781 2.535156 L 95.425781 2.890625 Z M 91.488281 6.324219 L 91.488281 5.964844 L 95.195312 5.964844 L 95.195312 6.324219 Z M 91.316406 2.535156 L 91.695312 2.535156 L 91.695312 10.59375 L 91.316406 10.59375 Z M 115.117188 2.535156 L 115.496094 2.535156 L 115.496094 10.835938 L 109.378906 3.316406 L 109.378906 10.59375 L 109 10.59375 L 109 2.292969 L 115.117188 9.847656 Z M 92.511719 23.574219 L 94.945312 16.355469 L 95.359375 16.355469 L 92.523438 24.65625 L 90.03125 17.183594 L 87.539062 24.65625 L 84.703125 16.355469 L 85.117188 16.355469 L 87.5625 23.574219 L 90.03125 16.113281 Z M 105.589844 34.851562 L 105.695312 34.503906 L 109.519531 34.503906 L 109.621094 34.851562 Z M 107.601562 30.347656 L 105.867188 34.632812 L 105.832031 34.722656 L 104.605469 37.773438 L 104.191406 37.773438 L 107.601562 29.472656 L 111.011719 37.773438 L 110.585938 37.773438 L 109.378906 34.746094 L 109.347656 34.652344 Z M 133.765625 29.714844 L 134.144531 29.714844 L 134.144531 38.015625 L 128.023438 30.496094 L 128.023438 37.773438 L 127.644531 37.773438 L 127.644531 29.472656 L 133.765625 37.027344 Z M 133.765625 29.714844 "/>
<path style=" stroke:none;fill-rule:nonzero;fill:rgb(100%,100%,72.941176%);fill-opacity:1;" d="M 98.625 6.851562 L 99.035156 6.851562 L 101.675781 10.59375 L 101.21875 10.59375 Z M 97.3125 2.535156 L 97.691406 2.535156 L 97.691406 10.59375 L 97.3125 10.59375 Z M 97.488281 2.878906 L 97.488281 2.535156 L 98.886719 2.535156 C 99.40625 2.535156 99.871094 2.621094 100.277344 2.796875 C 100.683594 2.96875 101.003906 3.222656 101.242188 3.558594 C 101.484375 3.898438 101.609375 4.316406 101.609375 4.8125 C 101.609375 5.304688 101.484375 5.722656 101.242188 6.070312 C 101.003906 6.40625 100.683594 6.664062 100.277344 6.839844 C 99.871094 7.011719 99.40625 7.09375 98.886719 7.09375 L 97.488281 7.09375 L 97.488281 6.761719 L 98.886719 6.761719 C 99.347656 6.761719 99.753906 6.6875 100.105469 6.542969 C 100.457031 6.394531 100.730469 6.179688 100.929688 5.898438 C 101.128906 5.605469 101.230469 5.242188 101.230469 4.8125 C 101.230469 4.382812 101.128906 4.027344 100.929688 3.742188 C 100.730469 3.453125 100.457031 3.234375 100.105469 3.097656 C 99.753906 2.953125 99.347656 2.878906 98.886719 2.878906 Z M 118.980469 2.890625 L 118.980469 2.535156 L 123.65625 2.535156 L 123.65625 2.890625 L 121.507812 2.890625 L 121.507812 10.59375 L 121.128906 10.59375 L 121.128906 2.890625 Z M 96.722656 24.414062 L 96.722656 24.058594 L 100.664062 24.058594 L 100.664062 24.414062 Z M 96.722656 16.710938 L 96.722656 16.355469 L 100.664062 16.355469 L 100.664062 16.710938 Z M 96.722656 20.144531 L 96.722656 19.785156 L 100.433594 19.785156 L 100.433594 20.144531 Z M 96.550781 16.355469 L 96.929688 16.355469 L 96.929688 24.414062 L 96.550781 24.414062 Z M 94.675781 34.03125 L 95.089844 34.03125 L 97.730469 37.773438 L 97.269531 37.773438 Z M 93.367188 29.714844 L 93.746094 29.714844 L 93.746094 37.773438 L 93.367188 37.773438 Z M 93.539062 30.058594 L 93.539062 29.714844 L 94.941406 29.714844 C 95.460938 29.714844 95.925781 29.800781 96.328125 29.976562 C 96.734375 30.148438 97.058594 30.402344 97.292969 30.738281 C 97.539062 31.078125 97.660156 31.496094 97.660156 31.992188 C 97.660156 32.484375 97.539062 32.902344 97.292969 33.25 C 97.058594 33.585938 96.734375 33.84375 96.328125 34.019531 C 95.925781 34.191406 95.460938 34.273438 94.941406 34.273438 L 93.539062 34.273438 L 93.539062 33.941406 L 94.941406 33.941406 C 95.398438 33.941406 95.804688 33.867188 96.15625 33.722656 C 96.507812 33.574219 96.785156 33.359375 96.984375 33.078125 C 97.183594 32.785156 97.28125 32.421875 97.28125 31.992188 C 97.28125 31.5625 97.183594 31.207031 96.984375 30.921875 C 96.785156 30.632812 96.507812 30.414062 96.15625 30.277344 C 95.804688 30.132812 95.398438 30.058594 94.941406 30.058594 Z M 118.628906 33.746094 C 118.628906 34.464844 118.777344 35.109375 119.078125 35.679688 C 119.382812 36.238281 119.804688 36.683594 120.339844 37.015625 C 120.875 37.335938 121.484375 37.5 122.164062 37.5 C 122.863281 37.5 123.472656 37.335938 124.003906 37.015625 C 124.539062 36.683594 124.957031 36.238281 125.253906 35.679688 C 125.550781 35.109375 125.703125 34.464844 125.703125 33.746094 C 125.703125 33.015625 125.550781 32.371094 125.253906 31.808594 C 124.957031 31.25 124.539062 30.808594 124.003906 30.484375 C 123.472656 30.15625 122.863281 29.988281 122.164062 29.988281 C 121.484375 29.988281 120.875 30.15625 120.339844 30.484375 C 119.804688 30.808594 119.382812 31.25 119.078125 31.808594 C 118.777344 32.371094 118.628906 33.015625 118.628906 33.746094 Z M 118.238281 33.746094 C 118.238281 33.144531 118.332031 32.597656 118.527344 32.097656 C 118.722656 31.589844 119 31.152344 119.351562 30.785156 C 119.703125 30.414062 120.117188 30.128906 120.59375 29.921875 C 121.074219 29.714844 121.597656 29.609375 122.164062 29.609375 C 122.738281 29.609375 123.261719 29.714844 123.738281 29.921875 C 124.210938 30.128906 124.625 30.414062 124.976562 30.785156 C 125.339844 31.152344 125.613281 31.589844 125.804688 32.097656 C 126.003906 32.597656 126.105469 33.144531 126.105469 33.746094 C 126.105469 34.335938 126.003906 34.882812 125.804688 35.390625 C 125.613281 35.898438 125.339844 36.335938 124.976562 36.703125 C 124.625 37.074219 124.210938 37.359375 123.738281 37.566406 C 123.261719 37.773438 122.738281 37.878906 122.164062 37.878906 C 121.597656 37.878906 121.074219 37.773438 120.59375 37.566406 C 120.117188 37.359375 119.703125 37.074219 119.351562 36.703125 C 119 36.335938 118.722656 35.898438 118.527344 35.390625 C 118.332031 34.882812 118.238281 34.335938 118.238281 33.746094 Z M 118.238281 33.746094 "/>
<path style=" stroke:none;fill-rule:nonzero;fill:rgb(72.941176%,88.235294%,100%);fill-opacity:1;" d="M 103.171875 10.59375 L 103.171875 10.238281 L 107.109375 10.238281 L 107.109375 10.59375 Z M 103.171875 2.890625 L 103.171875 2.535156 L 107.109375 2.535156 L 107.109375 2.890625 Z M 103.171875 6.324219 L 103.171875 5.964844 L 106.878906 5.964844 L 106.878906 6.324219 Z M 103 2.535156 L 103.378906 2.535156 L 103.378906 10.59375 L 103 10.59375 Z M 129.644531 2.535156 L 130.070312 2.535156 L 127.347656 7.40625 L 127.347656 10.59375 L 126.980469 10.59375 L 126.980469 7.417969 L 124.339844 2.535156 L 124.765625 2.535156 L 127.152344 7.035156 Z M 85.449219 33.746094 C 85.449219 34.464844 85.597656 35.109375 85.898438 35.679688 C 86.203125 36.238281 86.617188 36.679688 87.136719 37.003906 C 87.65625 37.324219 88.246094 37.488281 88.90625 37.488281 C 89.289062 37.488281 89.632812 37.449219 89.9375 37.371094 C 90.253906 37.296875 90.535156 37.179688 90.789062 37.027344 C 91.042969 36.867188 91.273438 36.671875 91.488281 36.449219 L 91.488281 36.957031 C 91.152344 37.257812 90.785156 37.488281 90.386719 37.648438 C 89.988281 37.800781 89.496094 37.878906 88.90625 37.878906 C 88.347656 37.878906 87.832031 37.777344 87.355469 37.578125 C 86.886719 37.371094 86.484375 37.085938 86.136719 36.714844 C 85.792969 36.339844 85.527344 35.902344 85.335938 35.402344 C 85.144531 34.894531 85.046875 34.34375 85.046875 33.746094 C 85.046875 33.144531 85.144531 32.597656 85.335938 32.097656 C 85.527344 31.589844 85.792969 31.152344 86.136719 30.785156 C 86.484375 30.410156 86.886719 30.121094 87.355469 29.921875 C 87.832031 29.714844 88.347656 29.609375 88.90625 29.609375 C 89.496094 29.609375 89.988281 29.691406 90.386719 29.851562 C 90.785156 30.003906 91.152344 30.230469 91.488281 30.53125 L 91.488281 31.027344 C 91.28125 30.804688 91.046875 30.617188 90.777344 30.460938 C 90.515625 30.308594 90.230469 30.195312 89.917969 30.117188 C 89.609375 30.039062 89.273438 30 88.90625 30 C 88.246094 30 87.65625 30.164062 87.136719 30.484375 C 86.617188 30.800781 86.203125 31.238281 85.898438 31.796875 C 85.597656 32.359375 85.449219 33.007812 85.449219 33.746094 Z M 110.539062 30.070312 L 110.539062 29.714844 L 115.210938 29.714844 L 115.210938 30.070312 L 113.0625 30.070312 L 113.0625 37.773438 L 112.683594 37.773438 L 112.683594 30.070312 Z M 136.019531 35.53125 C 136.109375 35.875 136.242188 36.203125 136.410156 36.507812 C 136.585938 36.808594 136.820312 37.050781 137.109375 37.234375 C 137.398438 37.417969 137.765625 37.511719 138.210938 37.511719 C 138.792969 37.511719 139.246094 37.347656 139.566406 37.027344 C 139.886719 36.695312 140.046875 36.28125 140.046875 35.78125 C 140.046875 35.375 139.957031 35.042969 139.773438 34.78125 C 139.589844 34.519531 139.355469 34.308594 139.074219 34.148438 C 138.789062 33.984375 138.496094 33.847656 138.1875 33.734375 C 137.9375 33.632812 137.683594 33.523438 137.429688 33.398438 C 137.179688 33.269531 136.945312 33.117188 136.730469 32.949219 C 136.523438 32.773438 136.359375 32.566406 136.238281 32.328125 C 136.113281 32.089844 136.054688 31.804688 136.054688 31.476562 C 136.054688 31.097656 136.136719 30.773438 136.304688 30.496094 C 136.480469 30.210938 136.722656 29.992188 137.027344 29.839844 C 137.335938 29.6875 137.683594 29.609375 138.074219 29.609375 C 138.496094 29.609375 138.855469 29.691406 139.152344 29.851562 C 139.453125 30.011719 139.695312 30.210938 139.886719 30.449219 C 140.078125 30.6875 140.222656 30.925781 140.3125 31.164062 L 139.96875 31.347656 C 139.890625 31.132812 139.773438 30.921875 139.613281 30.714844 C 139.460938 30.507812 139.257812 30.335938 139.003906 30.195312 C 138.75 30.058594 138.4375 29.988281 138.0625 29.988281 C 137.566406 29.988281 137.167969 30.121094 136.867188 30.382812 C 136.578125 30.640625 136.433594 30.996094 136.433594 31.441406 C 136.433594 31.785156 136.515625 32.082031 136.683594 32.328125 C 136.859375 32.566406 137.097656 32.773438 137.394531 32.949219 C 137.703125 33.125 138.058594 33.289062 138.464844 33.433594 C 138.695312 33.527344 138.921875 33.632812 139.152344 33.757812 C 139.390625 33.878906 139.605469 34.027344 139.796875 34.203125 C 139.988281 34.382812 140.140625 34.597656 140.253906 34.851562 C 140.378906 35.101562 140.4375 35.402344 140.4375 35.75 C 140.4375 36.054688 140.386719 36.339844 140.277344 36.601562 C 140.171875 36.863281 140.019531 37.089844 139.820312 37.28125 C 139.628906 37.464844 139.394531 37.609375 139.117188 37.71875 C 138.84375 37.824219 138.535156 37.878906 138.199219 37.878906 C 137.71875 37.878906 137.308594 37.777344 136.972656 37.578125 C 136.636719 37.378906 136.363281 37.113281 136.15625 36.785156 C 135.949219 36.453125 135.800781 36.097656 135.707031 35.714844 Z M 136.019531 35.53125 "/>
</g>
</svg>
